<svg width="230" height="48" viewBox="0 0 230 48" fill="none" xmlns="http://www.w3.org/2000/svg">
<path d="M38.0421 24.5106L9.95703 39.8297V9.19141L38.0421 24.5106Z" stroke="white" stroke-width="5.10638" stroke-linejoin="round"/>
<path d="M69.376 38.36C67.912 38.36 66.568 38.18 65.344 37.82C64.12 37.436 63.016 36.872 62.032 36.128C61.048 35.384 60.172 34.484 59.404 33.428L62.464 29.972C63.64 31.604 64.792 32.732 65.92 33.356C67.048 33.98 68.32 34.292 69.736 34.292C70.552 34.292 71.296 34.172 71.968 33.932C72.64 33.668 73.168 33.32 73.552 32.888C73.936 32.432 74.128 31.916 74.128 31.34C74.128 30.932 74.044 30.56 73.876 30.224C73.732 29.864 73.504 29.552 73.192 29.288C72.88 29 72.496 28.736 72.04 28.496C71.584 28.256 71.068 28.052 70.492 27.884C69.916 27.716 69.28 27.56 68.584 27.416C67.264 27.152 66.112 26.804 65.128 26.372C64.144 25.916 63.316 25.364 62.644 24.716C61.972 24.044 61.48 23.3 61.168 22.484C60.856 21.644 60.7 20.696 60.7 19.64C60.7 18.584 60.928 17.612 61.384 16.724C61.864 15.836 62.512 15.068 63.328 14.42C64.144 13.772 65.092 13.268 66.172 12.908C67.252 12.548 68.416 12.368 69.664 12.368C71.08 12.368 72.34 12.536 73.444 12.872C74.572 13.208 75.556 13.712 76.396 14.384C77.26 15.032 77.968 15.824 78.52 16.76L75.424 19.82C74.944 19.076 74.404 18.464 73.804 17.984C73.204 17.48 72.556 17.108 71.86 16.868C71.164 16.604 70.432 16.472 69.664 16.472C68.8 16.472 68.044 16.592 67.396 16.832C66.772 17.072 66.28 17.42 65.92 17.876C65.56 18.308 65.38 18.836 65.38 19.46C65.38 19.94 65.488 20.372 65.704 20.756C65.92 21.116 66.22 21.44 66.604 21.728C67.012 22.016 67.528 22.268 68.152 22.484C68.776 22.7 69.484 22.892 70.276 23.06C71.596 23.324 72.784 23.684 73.84 24.14C74.896 24.572 75.796 25.1 76.54 25.724C77.284 26.324 77.848 27.02 78.232 27.812C78.616 28.58 78.808 29.444 78.808 30.404C78.808 32.06 78.412 33.488 77.62 34.688C76.852 35.864 75.76 36.776 74.344 37.424C72.928 38.048 71.272 38.36 69.376 38.36ZM83.4143 38V14.204H87.8423V38H83.4143ZM79.6703 23.132V19.028H91.9823V23.132H79.6703ZM100.543 38.36C98.9827 38.36 97.5667 37.928 96.2947 37.064C95.0227 36.2 94.0027 35.024 93.2347 33.536C92.4667 32.048 92.0827 30.356 92.0827 28.46C92.0827 26.564 92.4667 24.872 93.2347 23.384C94.0027 21.896 95.0467 20.732 96.3667 19.892C97.6867 19.052 99.1747 18.632 100.831 18.632C101.791 18.632 102.667 18.776 103.459 19.064C104.251 19.328 104.947 19.712 105.547 20.216C106.147 20.72 106.639 21.296 107.023 21.944C107.431 22.592 107.707 23.288 107.851 24.032L106.879 23.78V19.028H111.343V38H106.843V33.464L107.887 33.284C107.719 33.932 107.407 34.568 106.951 35.192C106.519 35.792 105.967 36.332 105.295 36.812C104.647 37.268 103.915 37.64 103.099 37.928C102.307 38.216 101.455 38.36 100.543 38.36ZM101.767 34.436C102.799 34.436 103.711 34.184 104.503 33.68C105.295 33.176 105.907 32.48 106.339 31.592C106.795 30.68 107.023 29.636 107.023 28.46C107.023 27.308 106.795 26.288 106.339 25.4C105.907 24.512 105.295 23.816 104.503 23.312C103.711 22.808 102.799 22.556 101.767 22.556C100.735 22.556 99.8227 22.808 99.0307 23.312C98.2627 23.816 97.6627 24.512 97.2307 25.4C96.7987 26.288 96.5827 27.308 96.5827 28.46C96.5827 29.636 96.7987 30.68 97.2307 31.592C97.6627 32.48 98.2627 33.176 99.0307 33.68C99.8227 34.184 100.735 34.436 101.767 34.436ZM114.676 38V19.028H119.032L119.104 25.076L118.492 23.708C118.756 22.748 119.212 21.884 119.86 21.116C120.508 20.348 121.252 19.748 122.092 19.316C122.956 18.86 123.856 18.632 124.792 18.632C125.2 18.632 125.584 18.668 125.944 18.74C126.328 18.812 126.64 18.896 126.88 18.992L125.692 23.852C125.428 23.708 125.104 23.588 124.72 23.492C124.336 23.396 123.952 23.348 123.568 23.348C122.968 23.348 122.392 23.468 121.84 23.708C121.312 23.924 120.844 24.236 120.436 24.644C120.028 25.052 119.704 25.532 119.464 26.084C119.248 26.612 119.14 27.212 119.14 27.884V38H114.676ZM130.784 38V14.204H135.212V38H130.784ZM127.04 23.132V19.028H139.352V23.132H127.04ZM167.886 38L164.862 34.832L163.71 33.68L157.842 27.2C157.122 26.432 156.462 25.676 155.862 24.932C155.286 24.164 154.794 23.432 154.386 22.736C154.002 22.04 153.69 21.368 153.45 20.72C153.234 20.072 153.126 19.46 153.126 18.884C153.126 17.636 153.45 16.52 154.098 15.536C154.746 14.552 155.646 13.784 156.798 13.232C157.95 12.656 159.282 12.368 160.794 12.368C161.922 12.368 162.978 12.572 163.962 12.98C164.946 13.364 165.786 13.916 166.482 14.636C167.202 15.332 167.718 16.16 168.03 17.12L164.61 19.244C164.178 18.164 163.662 17.408 163.062 16.976C162.462 16.52 161.73 16.292 160.866 16.292C160.194 16.292 159.63 16.4 159.174 16.616C158.718 16.808 158.37 17.108 158.13 17.516C157.89 17.9 157.77 18.38 157.77 18.956C157.77 19.46 157.938 20.036 158.274 20.684C158.61 21.332 159.018 21.992 159.498 22.664C160.002 23.336 160.518 23.96 161.046 24.536C161.574 25.112 162.03 25.616 162.414 26.048L166.626 30.692L168.174 32.24L173.502 38H167.886ZM158.382 38.36C156.63 38.36 155.034 38 153.594 37.28C152.154 36.536 151.014 35.552 150.174 34.328C149.334 33.104 148.914 31.76 148.914 30.296C148.914 28.448 149.43 26.828 150.462 25.436C151.494 24.044 153.018 22.976 155.034 22.232L157.806 25.256C156.342 25.592 155.238 26.132 154.494 26.876C153.774 27.596 153.414 28.568 153.414 29.792C153.414 30.728 153.642 31.556 154.098 32.276C154.554 32.972 155.202 33.524 156.042 33.932C156.882 34.316 157.89 34.508 159.066 34.508C160.098 34.508 161.046 34.304 161.91 33.896C162.798 33.488 163.59 32.912 164.286 32.168C164.982 31.4 165.558 30.488 166.014 29.432C166.47 28.376 166.782 27.212 166.95 25.94H171.018C170.826 27.428 170.466 28.808 169.938 30.08C169.434 31.352 168.798 32.504 168.03 33.536C167.286 34.544 166.422 35.408 165.438 36.128C164.454 36.848 163.374 37.4 162.198 37.784C161.022 38.168 159.75 38.36 158.382 38.36ZM195.998 38.36C194.102 38.36 192.35 38.036 190.742 37.388C189.134 36.716 187.73 35.792 186.53 34.616C185.354 33.44 184.442 32.072 183.794 30.512C183.146 28.928 182.822 27.212 182.822 25.364C182.822 23.54 183.146 21.848 183.794 20.288C184.466 18.704 185.402 17.336 186.602 16.184C187.802 15.008 189.206 14.096 190.814 13.448C192.446 12.8 194.198 12.476 196.07 12.476C197.39 12.476 198.662 12.656 199.886 13.016C201.11 13.376 202.214 13.88 203.198 14.528C204.182 15.176 204.998 15.908 205.646 16.724L202.694 19.82C202.022 19.172 201.326 18.632 200.606 18.2C199.91 17.768 199.178 17.432 198.41 17.192C197.642 16.952 196.85 16.832 196.034 16.832C194.834 16.832 193.718 17.048 192.686 17.48C191.678 17.912 190.79 18.512 190.022 19.28C189.278 20.048 188.69 20.948 188.258 21.98C187.826 23.012 187.61 24.14 187.61 25.364C187.61 26.54 187.826 27.656 188.258 28.712C188.714 29.768 189.338 30.692 190.13 31.484C190.922 32.276 191.834 32.9 192.866 33.356C193.922 33.788 195.038 34.004 196.214 34.004C197.102 34.004 197.93 33.872 198.698 33.608C199.466 33.344 200.15 32.984 200.75 32.528C201.35 32.048 201.806 31.496 202.118 30.872C202.454 30.248 202.622 29.576 202.622 28.856V28.064L203.27 28.82H195.818V24.644H207.23C207.278 24.908 207.314 25.208 207.338 25.544C207.362 25.856 207.374 26.168 207.374 26.48C207.398 26.768 207.41 27.02 207.41 27.236C207.41 28.892 207.122 30.404 206.546 31.772C205.97 33.116 205.154 34.28 204.098 35.264C203.066 36.248 201.854 37.016 200.462 37.568C199.094 38.096 197.606 38.36 195.998 38.36ZM218.408 38.36C216.512 38.36 214.82 37.94 213.332 37.1C211.844 36.236 210.668 35.06 209.804 33.572C208.94 32.084 208.508 30.392 208.508 28.496C208.508 26.6 208.94 24.908 209.804 23.42C210.668 21.932 211.844 20.768 213.332 19.928C214.82 19.064 216.512 18.632 218.408 18.632C220.28 18.632 221.96 19.064 223.448 19.928C224.936 20.768 226.1 21.932 226.94 23.42C227.804 24.908 228.236 26.6 228.236 28.496C228.236 30.392 227.804 32.084 226.94 33.572C226.1 35.06 224.936 36.236 223.448 37.1C221.96 37.94 220.28 38.36 218.408 38.36ZM218.408 34.436C219.44 34.436 220.352 34.172 221.144 33.644C221.96 33.116 222.596 32.408 223.052 31.52C223.532 30.632 223.76 29.624 223.736 28.496C223.76 27.344 223.532 26.324 223.052 25.436C222.596 24.548 221.96 23.852 221.144 23.348C220.352 22.82 219.44 22.556 218.408 22.556C217.376 22.556 216.44 22.82 215.6 23.348C214.784 23.852 214.148 24.56 213.692 25.472C213.236 26.36 213.008 27.368 213.008 28.496C213.008 29.624 213.236 30.632 213.692 31.52C214.148 32.408 214.784 33.116 215.6 33.644C216.44 34.172 217.376 34.436 218.408 34.436Z" fill="white"/>
</svg>
